<?xml version="1.0" encoding="UTF-8"?>
<svg id="Layer_2" data-name="Layer 2" xmlns="http://www.w3.org/2000/svg" xmlns:xlink="http://www.w3.org/1999/xlink" viewBox="0 0 2038.28 2038.28">
  <defs>
    <style>
      .cls-1 {
        fill: #fff;
      }

      .cls-2 {
        fill: url(#linear-gradient);
      }
    </style>
    <linearGradient id="linear-gradient" x1="0" y1="1019.14" x2="2038.28" y2="1019.14" gradientUnits="userSpaceOnUse">
      <stop offset="0" stop-color="#10059f"/>
      <stop offset="1" stop-color="#0063f3"/>
    </linearGradient>
  </defs>
  <g id="Layer_2-2" data-name="Layer 2">
    <rect class="cls-2" width="2038.28" height="2038.28" rx="261.57" ry="261.57"/>
    <g>
      <path class="cls-1" d="M954.17,385.39c11.7-30.04,90.09-10.1,114.09-5.5,108.19,24.87,208.48,81.48,285.78,161.18,277.97,285.74,148.33,732.16-57.15,1029.83-13.65,18.67-36.73,42.53-58.48,42.4-38.13-.77-61.13-43.83-82.84-71.9-17.24-24-35.89-47.33-55.45-69.17-293.33-320.91,55.46-385.46,107.82-710.85,7.81-67.39-15.92-130.63-52.18-185.95-40.81-62.29-97.73-114.06-161.74-152.07-13.4-9.37-40.64-19.09-39.94-37.5l.09-.46Z"/>
      <path class="cls-1" d="M1039.34,1605.62c-15.68-37.62-45.1-67.36-70.61-98.79-51.36-60.2-101.16-126.56-116.92-205.88-26.79-109.91,33.77-207.62,93.5-297.25,35.44-56.94,71.65-111.49,97.19-173.35,51.43-123.18-17.23-253.54-106.3-339.57-19.16-19.12-38.82-37.56-59.57-55.03-30.14-25.52-63.83-42.83-87.49,2.53-12.37,23.9-19.21,48.94-28.68,73.64-82.95,228.86-266.5,441.56-230.89,694.68,15.78,111.05,76.9,210.11,155.68,288.96,72.92,72.22,162.2,131.02,258.14,164.18,45.67,16.91,121.66,17.47,96.22-53.39l-.27-.71Z"/>
    </g>
  </g>
</svg>