<svg width="20" height="21" viewBox="0 0 20 21" fill="#7FE4A7" xmlns="http://www.w3.org/2000/svg">
<path d="M9.16797 13.0001H10.8346C11.2767 13.0001 11.7006 12.8245 12.0131 12.5119C12.3257 12.1994 12.5013 11.7754 12.5013 11.3334C12.5013 10.8914 12.3257 10.4675 12.0131 10.1549C11.7006 9.84234 11.2767 9.66675 10.8346 9.66675H8.33464C7.83464 9.66675 7.41797 9.83342 7.16797 10.1667L2.5013 14.6667M5.83464 18.0001L7.16797 16.8334C7.41797 16.5001 7.83464 16.3334 8.33464 16.3334H11.668C12.5846 16.3334 13.418 16.0001 14.0013 15.3334L17.8346 11.6667C18.1562 11.3629 18.3439 10.9437 18.3564 10.5014C18.3689 10.0591 18.2052 9.62999 17.9013 9.30841C17.5974 8.98684 17.1782 8.79916 16.7359 8.78665C16.2937 8.77415 15.8645 8.93785 15.543 9.24175L12.043 12.4917M1.66797 13.8334L6.66797 18.8334M15.7513 8.00008C15.7513 9.33477 14.6693 10.4167 13.3346 10.4167C11.9999 10.4167 10.918 9.33477 10.918 8.00008C10.918 6.66539 11.9999 5.58341 13.3346 5.58341C14.6693 5.58341 15.7513 6.66539 15.7513 8.00008ZM7.5013 4.66675C7.5013 6.04746 6.38201 7.16675 5.0013 7.16675C3.62059 7.16675 2.5013 6.04746 2.5013 4.66675C2.5013 3.28604 3.62059 2.16675 5.0013 2.16675C6.38201 2.16675 7.5013 3.28604 7.5013 4.66675Z" stroke="white" stroke-width="2" stroke-linecap="round" stroke-linejoin="round"/>
</svg>
