<svg width="22" height="23" viewBox="0 0 22 23" fill="#615FFF" xmlns="http://www.w3.org/2000/svg">
<path d="M16.5 7.125V4.5C16.5 4.26794 16.4078 4.04538 16.2437 3.88128C16.0796 3.71719 15.8571 3.625 15.625 3.625H4.25C3.78587 3.625 3.34075 3.80937 3.01256 4.13756C2.68437 4.46575 2.5 4.91087 2.5 5.375M2.5 5.375C2.5 5.83913 2.68437 6.28425 3.01256 6.61244C3.34075 6.94063 3.78587 7.125 4.25 7.125H17.375C17.6071 7.125 17.8296 7.21719 17.9937 7.38128C18.1578 7.54538 18.25 7.76794 18.25 8V11.5M2.5 5.375V17.625C2.5 18.0891 2.68437 18.5342 3.01256 18.8624C3.34075 19.1906 3.78587 19.375 4.25 19.375H17.375C17.6071 19.375 17.8296 19.2828 17.9937 19.1187C18.1578 18.9546 18.25 18.7321 18.25 18.5V15M18.25 11.5H15.625C15.1609 11.5 14.7158 11.6844 14.3876 12.0126C14.0594 12.3408 13.875 12.7859 13.875 13.25C13.875 13.7141 14.0594 14.1592 14.3876 14.4874C14.7158 14.8156 15.1609 15 15.625 15H18.25M18.25 11.5C18.4821 11.5 18.7046 11.5922 18.8687 11.7563C19.0328 11.9204 19.125 12.1429 19.125 12.375V14.125C19.125 14.3571 19.0328 14.5796 18.8687 14.7437C18.7046 14.9078 18.4821 15 18.25 15" stroke="white" stroke-width="2" stroke-linecap="round" stroke-linejoin="round"/>
</svg>
